<svg id="Capa_1" enable-background="new 0 0 512.406 512.406" height="512" viewBox="0 0 512.406 512.406" width="512" xmlns="http://www.w3.org/2000/svg"><g id="XMLID_18_"><path id="XMLID_33_" d="m174.329 230.554c1.873-1.892 4.371-2.939 7.033-2.952h.046c5.476 0 9.943 4.441 9.969 9.922l30-.141c-.103-21.975-18.014-39.781-39.967-39.781-.063 0-.125 0-.188 0-22.038.104-39.883 18.116-39.78 40.154l30-.141c-.012-2.661 1.013-5.169 2.887-7.061z"/><path id="XMLID_34_" d="m330.366 230.554c1.873-1.892 4.371-2.939 7.033-2.952h.046c5.476 0 9.943 4.441 9.969 9.922l30-.141c-.103-21.975-18.014-39.781-39.967-39.781-.063 0-.125 0-.188 0-22.038.104-39.883 18.116-39.78 40.154l30-.141c-.012-2.661 1.013-5.169 2.887-7.061z"/><path id="XMLID_38_" d="m413.781 90.162c3.391-16.581 1.251-40.29-20.228-69.461l-14.85-20.168-10.771 22.61c-.314.661-32.752 66.091-78.017 66.091h-42.001c-45.765 0-77.709-65.449-78.017-66.091l-10.771-22.61-14.85 20.168c-21.479 29.172-23.619 52.881-20.228 69.461h-124.048v29.736c0 47.207 34.636 86.472 79.829 93.73v122.074c0 7.068.65 15.13 1.445 21.936-13.37 16.297-21.405 37.128-21.405 59.803 0 52.069 42.362 94.432 94.432 94.432h203.268c52.069 0 94.432-42.362 94.432-94.432 0-22.619-7.997-43.404-21.308-59.683.796-6.894 1.48-15.186 1.48-22.057v-122.047c45.411-7.193 80.234-46.495 80.234-93.756v-29.736zm-113.373 29.072h16.497c34.76 0 64.708 20.918 77.971 50.817-12.337-2.754-17.948-8.047-23.424-13.221-3.544-3.349-7.209-6.812-12.179-9.467-19.899-10.631-32.181-9.979-41.15-9.505-6.459.344-8.199.437-13.811-4.009-4.686-3.709-4.844-9.695-3.904-14.615zm80.928-59.971c5.691 14.272 4.074 24.468 1.295 30.898h-27.413c10.812-10.112 19.589-21.311 26.118-30.898zm-111.066 59.971c-1.099 12.847 1.99 27.501 15.418 38.135 14.501 11.483 25.324 10.911 34.023 10.448 6.922-.365 12.9-.685 25.426 6.008 1.425.761 3.508 2.729 5.712 4.812 8.643 8.167 21.172 19.996 51.244 22.756.037 1.033.079 2.065.079 3.107v129.728c-13.292-7.153-28.481-11.218-44.604-11.218h-203.267c-16.069 0-31.211 4.039-44.472 11.149v-38.37l100.231.021c.881.022 1.757.034 2.629.034 21.249 0 39.8-6.709 52.474-19.035 12.138-11.805 18.553-28.12 18.553-47.184 0-26.228-22.702-54.495-69.403-86.419-12.624-8.629-25.161-16.24-35.803-22.339 5.368-1.063 10.911-1.632 16.587-1.632h75.173zm-126.19 16.986c11.042 5.768 32.438 17.465 53.565 31.931 50.607 34.651 56.071 54.533 56.071 61.473 0 10.928-3.186 19.566-9.47 25.678-7.377 7.176-19.315 10.916-33.565 10.513l-100.852-.027v-61.288c0-27.901 13.471-52.715 34.251-68.28zm12.413-76.957c6.481 9.517 14.592 20.845 25.295 30.898-.647.071-26.59 0-26.59 0-2.779-6.429-4.396-16.624 1.295-30.898zm-126.492 60.899h86.614c-17.738 16.517-30.276 38.542-34.86 63.326-29.425-6.092-51.63-32.152-51.754-63.326zm327.567 361.712h-203.267c-35.527 0-64.432-28.904-64.432-64.432s28.904-64.433 64.432-64.433h203.268c35.527 0 64.432 28.904 64.432 64.433-.001 35.527-28.905 64.432-64.433 64.432zm72.685-298.351c-4.579-24.799-17.121-46.837-34.867-63.362h87.019c-.124 31.233-22.511 57.333-52.152 63.362z"/><path id="XMLID_47_" d="m185.882 387.442c-22.056 0-40 17.944-40 40h30c0-5.514 4.486-10 10-10s10 4.486 10 10h30c0-22.056-17.944-40-40-40z"/><path id="XMLID_48_" d="m327.205 387.442c-22.056 0-40 17.944-40 40h30c0-5.514 4.486-10 10-10s10 4.486 10 10h30c0-22.056-17.944-40-40-40z"/></g></svg>